<?xml version="1.0" encoding="utf-8"?>
<svg version="1.1" xmlns:xlink="http://www.w3.org/1999/xlink" width="14px" height="8px" xmlns="http://www.w3.org/2000/svg">
  <g transform="matrix(1 0 0 1 -289 -368 )">
    <path d="M 13.740234375 0.2638888888888893  C 13.913411458333334 0.439814814814814  14 0.6481481481481461  14 0.8888888888888893  C 14 1.1296296296296289  13.913411458333334 1.337962962962962  13.740234375 1.5138888888888893  L 7.615234375 7.736111111111111  C 7.442057291666667 7.912037037037038  7.236979166666667 8  7 8  C 6.763020833333334 8  6.557942708333334 7.912037037037038  6.384765625 7.736111111111111  L 0.259765625 1.5138888888888893  C 0.08658854166666666 1.337962962962962  0 1.1296296296296289  0 0.8888888888888893  C 0 0.6481481481481461  0.08658854166666666 0.439814814814814  0.259765625 0.2638888888888893  C 0.43294270833333337 0.08796296296296191  0.6380208333333334 0  0.875 0  L 13.125 0  C 13.361979166666668 0  13.567057291666668 0.08796296296296191  13.740234375 0.2638888888888893  Z " fill-rule="nonzero" fill="#ffffff" stroke="none" transform="matrix(1 0 0 1 289 368 )" />
  </g>
</svg>